<svg xmlns="http://www.w3.org/2000/svg" width="225.115" height="71.259" viewBox="495.287 277.556 168.836 53.444">
    <path d="m589.079 301.018-.477-2.811q0-.477-.106-1.114v-.371q.052-.371-.054-.796 0-.53.106-.954 0-1.061.266-1.379 0-.265.742-1.22.212-.212.796-.689.848-.266 1.166-.319.213-.212 1.432.16.531.053 1.645.371.371.106.954.848-.106.213-.345 1.565-.238 1.352-.185 2.201.318-.265 1.114-1.114.795-.848.848-.901 1.379-.637 2.705-.902 1.909-.159 2.492.265.478.159.743.477.477.425.796 1.459.318 1.034-.054 1.299-.318.265-2.121.425-.106 0-.742.424l-2.758 2.174q-.849.424-1.167.743l-1.008 1.856q-.053.106-.106 1.379t0 1.83q.053.556 0 3.579v2.281q0 1.856-.053 2.148-.053.291-.424 1.034-.159.265-1.008.265-2.068 1.538-2.651-.159l-.69-.424q-.424-.212-.53-.531-.424-.583-.424-.689l-.213-.743-.318-.636q-.159-.053-.265-2.042-.106-1.989-.106-2.439 0-.451-.106-.982.371-.371.345-1.272-.027-.902-.133-1.406-.106-.504 0-.636.106-.133-.053-1.459-.159-.212-.053-.795Zm18.933-7.743q1.432-1.75 3.925-1.857 4.084-.159 6.072 2.016 1.989 2.174 2.122 4.296.132 2.121-1.088 2.28-1.75.053-2.28-.477-.477.053-1.22-.69-.318-.159-.848-1.219l-.584-1.326q-.424-.955-1.06-1.061-.796.318-.796 1.591.212 2.493 2.387 4.773l.079.133q.08.132.769.875 4.19 4.614 4.349 7.425 0 1.803-.742 2.386-2.281 2.705-5.94 2.811-3.66.106-6.046-2.28-.637-.637-.637-1.22-.318-1.008-.212-1.326-.159-1.485 0-2.228.318-1.697 2.493-1.75.795 0 1.007.955.69 2.705 1.3 3.553.61.849 1.989.796 1.75-.106 1.67-1.962-.079-1.857-1.776-3.448-.531-.636-1.035-.981-.504-.345-.663-.504-.053-.159-.265-.318-1.06-.848-2.678-2.811-1.618-1.962-1.724-3.659-.212-3.023 1.432-4.773Zm23.548 14.849.689-3.977q0-.318.08-.504.079-.186.079-.504.053-.424.265-1.379 0-.424.213-.689.106-.849 1.326-3.341.212-.743.689-1.273 0-.318.318-.743l.637-1.113q0-.106.371-.796.318-.159.424-.557.106-.398.636-1.14.16-.477 1.22-.902h.849l1.167.372.795.53q.265.265.371.742.106-.106.106 0-.053.478-.636 2.387-.53 1.75-.742 2.466-.213.716-.478 1.459 0 .053-.424 1.511-.424 1.459-.743 1.989l-1.007 3.712q-.584 1.379-.743 2.44-1.166 5.197-1.166 5.409 0 .213-.425 1.326-.106.849-1.856.849-.265-.265-.689-.477-.159.212-1.432.053-2.281.265-3.872-.637-.371-.636-.636-2.015-.69-1.167-.743-1.856l-.53-.955q0-.689-.239-1.273-.238-.583-.291-1.167-.159-.371-.159-.848-.107-.424-.107-.902-.212-1.007-.159-2.095.053-1.087-.106-2.625 0-.901-.053-1.114l.053-1.378q0-1.008.053-1.22-.212-.849-.212-1.485l-.053-1.008q0-.636-.106-1.22-.106-.583.106-1.166.371-.425.796-.69.636-.53 1.909-.053l1.326.583.477.372q.106.106-.053.53l.265 2.546q0 1.22.318 3.102.319 1.883.425 3.129.106 1.247.397 3.448.292 2.2.345 2.731 0 1.008.212 1.114.478-.796.743-1.698Zm26.252-9.228v-.636q.265-2.068.159-2.227-.265.106-.636.583l-1.75 1.962q-2.758 3.447-2.758 4.084 0 .106-.371.848l.052.849-.106 2.281v.583q0 2.28.16 3.288.053-.159.901-.689l.902-1.22q1.379-1.697 1.75-2.44 1.167-3.553 1.167-4.03 0-.743.424-2.122 0-.477.106-1.114Zm-11.349-1.485.212-2.439q.159-.424.053-1.114l.371-2.174q0-.478-.053-1.034-.053-.557.053-.769.212-.425 1.114-.743h-.212q.53-.318 1.485-.053.954.265 1.591.477.371.478.954 1.061l.053 1.697q0 1.326.159 2.758-.053.583 0 .742l.902-.954q.053-.106 1.193-1.167 1.141-1.061 1.459-1.326 0-.265.636-.424 1.379-.318 2.334-.027.954.292 1.06.292l1.963.849q0 .212.53.371l.477.265q.265 0 .69.371.636.106.477.902 0 .212.159.424v1.273q0 .849-.504 2.996-.504 2.148-.636 2.52-.133.371-.318.954-.186.584-.398 1.114-.265.902-1.061 2.466-.795 1.565-1.591 2.466-1.856 2.599-4.136 4.137-2.493.954-3.13 1.114-.159 0 0 1.909v3.818l.159 2.334.054 2.386q.106 1.751-.106 1.963l-.637.53q-.689.265-1.22.053-1.061-.318-1.273-.477-.212 0-.689-.424l-.583-.213q-.743.106-.902-.371-.53-.424-.53-.742l-.796-1.167q-.318-.796-.318-1.485-.318-1.167-.212-1.803l-.106-2.016v-2.81q0-1.432-.106-1.857-.106-.318.106-5.621.159-1.061.159-1.326l.795-6.523.159-1.804v-.424q.16-.636.16-.955Zm-149.346-4.136q1.431-1.75 3.924-1.857 4.084-.159 6.073 2.016 1.988 2.174 2.121 4.296.133 2.121-1.087 2.28-1.75.053-2.281-.477-.477.053-1.219-.69-.319-.159-.849-1.219l-.583-1.326q-.425-.955-1.061-1.061-.796.318-.796 1.591.212 2.493 2.387 4.773l.08.133q.079.132.768.875 4.19 4.614 4.349 7.425 0 1.803-.742 2.386-2.281 2.705-5.94 2.811-3.659.106-6.046-2.28-.636-.637-.636-1.22-.319-1.008-.213-1.326-.159-1.485 0-2.228.319-1.697 2.493-1.75.796 0 1.008.955.689 2.705 1.299 3.553.61.849 1.989.796 1.75-.106 1.671-1.962-.08-1.857-1.777-3.448-.531-.636-1.034-.981-.504-.345-.663-.504-.053-.159-.265-.318-1.061-.848-2.679-2.811-1.617-1.962-1.723-3.659-.212-3.023 1.432-4.773Zm18.933-1.326h.106q.69-.212 2.228.159.53.159.636 3.023.212 2.174.212 2.996 0 .822.053.982v3.553l.265.053q0-.053.106-.636.265-1.485.584-2.281.212-.212.238-.53.027-.319.292-.69.318-1.485 1.591-3.871.424-1.008.822-1.512.398-.504 1.22-.345.822.16 1.352.584.425.053 1.008.159l1.538.318q.212.053.583.345.372.292.319.716-.053.424-.106 2.492v.849l-.213 2.068q0 .849.107 1.008l.212.159.424-2.439q0-.372.318-.69l.637-1.538q0-.159.318-.689.106-.372.504-1.061.397-.689 1.034-1.326 0-.424.954-.583.743-.796 2.44-.053.318 0 .583.106 0 .106.398.159.398.053.981.689v.584q0 .53.053.795-.053.371.053.955v.636q.053.425.265 2.652v.583q.16.319.133.663-.026.345-.026.716.159.159.265.875.106.716-.106 1.406l.106.477v1.485q.265.212.265.636l.159.902q0 .955.265 1.909v.584l.265 1.379v.318l-.053.53q0 .583-.636.849-.106.053-.292.159-.185.106-.61.106l-1.113-.371-.531-.372q-.424.106-1.113-.371 0-.477-.372-.848-.636-.213-.477-.849.053-.053-.265-.583.106-.106-.159-1.167 0-.477-.08-.928-.079-.451-.106-.928-.026-.478-.185-.849.052 0 .052-.371t-.106-.69v-1.219l-.265-2.122-.795 2.44q-.796 2.068-.796 2.227l-1.697 5.304q-.159.318-.61.716-.451.397-.769.397-.106-.159-.557-.159-.45 0-1.087.266-1.803.212-2.068-1.114l-.106-1.22.053-1.22q-.106-.159-.106-.742l-.053-.743v-2.28l-.106-2.705v-2.599q-1.539 4.19-1.91 5.463l-1.962 6.311q-.583 1.538-2.121 1.644l-.584.106q-1.166.265-1.538-.371l-.53-.902q-.212-1.166-.424-1.326-.107-.742-.531-1.538l-.265-1.272q0-.16-.106-.478v-.954q-.159-.425-.265-1.724-.106-1.299-.053-2.095-.212-.636-.106-1.591v-.955q-.265-1.219-.265-3.712v-.742q.265-1.591.265-2.148 0-.557.265-.849.265-.292 1.697-1.14Zm50.595-6.47.371-3.129.053-1.644q0-.69.266-1.061l.53-.743q1.432-1.113 1.856-1.273.424-.159 1.246.027.822.186.982.345l.583.477q.477.265.477.849.266.318.159.477-.318.371-1.06 6.258l-.425 7.213-.265 1.432q0 .689.053.795v.955q-.106 1.061-.212 1.326 0 .265-.106.583.106.106.106.822t-.159.875q-.106.849-.106 1.618 0 .769.133 1.591.132.822.079 1.617l.212 2.016v.795q.106.955.106 1.538l.265 2.758.213 1.432q.159.902-.133 1.75-.292.849-.875 1.061-1.644.689-3.606-.902h-.425q-.371-.424-.583-1.167-.424-.212-.371-.742.053-.53-.212-.955-.266-.424-.266-.742 0-.69-.106-1.22l.053-.424q-.159-.159-.159-.478l-.106-.954v-.424q0-.425-.026-.584-.027-.159.132-.53-.159-.212-.053-1.538.319-4.084.319-5.622l.053-1.273v-1.538q.053-1.273.079-3.235.027-1.962.186-2.121l-.053-.478q0-1.272.397-3.473.398-2.201.398-2.36Zm-12.357 12.728q-.371-2.121-2.068-1.962-.955.053-1.644 1.273-.955 1.856-.822 4.799.132 2.944.424 4.243.292 1.299 1.034 2.254.424.742 1.273.689 1.485 0 2.174-2.492l.425-1.273q.265-.265.106-.53.53-1.326.583-3.129-.53-.372-.636-.69-.319-.902-.319-1.22-.371-.265-.424-1.007-.053-.743-.106-.955Zm-9.705 4.985.212-2.705q.371-3.659 2.227-6.258 1.803-2.174 5.092-2.227h.318q3.076 0 4.455 1.326 1.485 1.167 2.201 2.545.716 1.379.928 2.016.212.636.265 1.856.106 2.28-.902 2.599.743 5.038-.901 8.008-.531 1.22-1.538 2.652-.743.954-2.652 1.06-1.909 0-3.315-.212-1.405-.212-3.102-1.352-1.697-1.14-2.387-3.739-.742-2.493-.901-5.569Zm35.374 3.235h.053q1.008-.159 2.015.584l.531.583q.053.212.689.637.053.159-.159 1.378.371.266.636 1.432.053 1.114-.371 3.713.106.265-.159.53-.583.584-2.227.053 0 .053-.08.027-.08-.027-.424-.106-.345-.08-.531-.106-.185-.027-1.299-.292-.955-.371-.955-.53-.583-.584-.583-.955-.318-.637-.106-1.485.212-.849.318-1.379l.477-.902q0-.371.584-1.591.106-.689.265-.848.849-.53 1.326-.743ZM562.103 325.2q.15-.219 1.872-.291 1.723-.073 4.443-.399 2.72-.327 3.246-.428.527-.102.999-.228 1.102-.312 5.901-1.044l1.257-.424q.735-.19 1.922-.983.318-.013 1.008-.653.69-.639 1.22-.662.212-.008 1.002 1.126l.018.424.032.768q.028.663-.082 1.198-.11.536-1.081 1.426-.972.89-3 1.877l-2.237 1.103q-.002-.053-.103.057-.515.393-2.089.831l-1.046.362-4.416 1.035q-.525.128-1.373.164l-1.007.042q-.622.345-3.59.469-3.391.142-5.802-.393l-1.552-.307q-.961-.119-4.039-1.37-3.078-1.251-5.273-2.963l-2.264-2.082q-.375-.09-1.108-1.121l-1.169-2.552-.33-1.525q-.068-1.643.715-1.941l1.363 2.119q.106-.005 1.48 1.106l.159-.007q-.148.272 1.753 1.306l1.14.59q.159-.007 1.307.794l.004.106q.056.051.32.04.265-.011 1.785.774.002.053 1.236.373t1.608.357q.373.037.428.088l-.053.002q.817.497 1.426.471.61-.025 1.239-.211 1.219-.051 2.731.576Z"/>
</svg>